<?xml version="1.0" encoding="UTF-8" standalone="no"?>
<svg
   xmlns:dc="http://purl.org/dc/elements/1.1/"
   xmlns:cc="http://creativecommons.org/ns#"
   xmlns:rdf="http://www.w3.org/1999/02/22-rdf-syntax-ns#"
   xmlns:svg="http://www.w3.org/2000/svg"
   xmlns="http://www.w3.org/2000/svg"
   height="322.60001"
   width="2500"
   xml:space="preserve"
   viewBox="0 0 2500 322.6"
   y="0px"
   x="0px"
   id="Calque_1"
   version="1.1"><metadata
   id="metadata105"><rdf:RDF><cc:Work
       rdf:about=""><dc:format>image/svg+xml</dc:format><dc:type
         rdf:resource="http://purl.org/dc/dcmitype/StillImage" /><dc:title></dc:title></cc:Work></rdf:RDF></metadata><defs
   id="defs103" />
<style
   id="style2"
   type="text/css">
	.st0{fill:#85CCD3;}
	.st1{fill:#1B939E;}
	.st2{stroke:#000000;stroke-width:1.7498;stroke-miterlimit:10;}
	.st3{stroke:#000000;stroke-width:1.5918;stroke-miterlimit:10;}
	.st4{stroke:#000000;stroke-width:1.2967;stroke-miterlimit:10;}
	.st5{fill:#FFFFFF;}
	.st6{fill:none;stroke:#000000;stroke-width:3.3286;stroke-miterlimit:10;}
	.st7{fill:#3CAAB5;stroke:#000000;stroke-width:2.4579;stroke-miterlimit:10;}
	.st8{fill:#FFFFFF;stroke:#000000;stroke-width:2.2191;stroke-miterlimit:10;}
	.st9{fill:#9D9D9C;}
	.st10{stroke:#000000;stroke-width:2.4031;stroke-miterlimit:10;}
	.st11{stroke:#000000;stroke-width:2.1861;stroke-miterlimit:10;}
	.st12{stroke:#000000;stroke-width:1.7808;stroke-miterlimit:10;}
	.st13{fill:none;stroke:#000000;stroke-width:4.5713;stroke-miterlimit:10;}
	.st14{fill:#3CAAB5;stroke:#000000;stroke-width:3.3756;stroke-miterlimit:10;}
	.st15{fill:#FFFFFF;stroke:#000000;stroke-width:3.0476;stroke-miterlimit:10;}
	.st16{fill:#B2B2B2;}
	.st17{fill:#706F6F;}
</style>
<path
   id="path4"
   d="m 1742.1958,121.1 15.8,12.9 c 4.6,3.9 7.1,7 7.5,12.9 v 45.8 c 0,5.8 -4.6,10.4 -10.4,10.4 -5.9,0 -10.6,-4.6 -10.6,-10.4 v -10.3 l -21,-19.5 v 29.8 c 0,5.8 -4.7,10.4 -10.5,10.4 -5.8,0 -10.6,-4.6 -10.6,-10.4 V 147 c 0.5,-5.9 3.3,-9.1 7.7,-12.9 l 15.5,-12.9 c 6.1,-4.9 10.6,-5.2 16.6,-0.1 z m 2.3,40.4 v -22 h -21 v 22 z"
   class="st0" />
<path
   id="path6"
   d="M 1797.0958,181.8 V 192 c 0,5.9 -4.4,10.8 -10.3,10.8 -5.8,0 -10.6,-4.8 -10.6,-10.8 0,-18.7 0,-37.5 0,-56.2 0,-9.8 8.1,-17.9 17.9,-17.9 5.7,0 10.3,0 16.1,0 4.8,0 9,1.7 12.5,5 l 11.6,11.6 c 7.6,7.3 6.3,25.2 -1.1,32.3 l -10.5,10 c -3.5,3.5 -7.6,5.1 -12.5,5.1 h -13.1 z m 20.3,-21.1 V 139 l -20.1,-0.2 v 21.9 z"
   class="st0" />
<path
   id="path8"
   d="M 1938.8958,181.8 V 192 c 0,5.9 -4.4,10.8 -10.3,10.8 -5.8,0 -10.6,-4.8 -10.6,-10.8 0,-18.7 0,-37.5 0,-56.2 0,-9.8 8.1,-17.9 17.9,-17.9 5.7,0 10.3,0 16.1,0 4.8,0 9,1.7 12.5,5 l 11.6,11.6 c 7.6,7.3 6.3,25.2 -1.1,32.3 l -10.5,10 c -3.5,3.5 -7.6,5.1 -12.5,5.1 h -13.1 z m 20.3,-21.1 V 139 l -20.1,-0.2 v 21.9 z"
   class="st0" />
<path
   id="path10"
   d="m 1987.6958,184.6 c 0,-18.7 0,-37.5 0,-56.5 0,-5.7 5,-10.4 10.6,-10.4 6,0 10.8,4.7 10.8,10.4 v 53.7 c 10.6,0 7.6,-0.2 18.1,-0.2 13.9,0 13.9,21.3 0,21.3 -9.6,0 -15.2,0 -21.2,0 -9.9,0 -18.3,-8.2 -18.3,-18.3 z"
   class="st0" />
<path
   id="path12"
   d="m 2083.5958,121.1 15.8,12.9 c 4.6,3.9 7.1,7 7.5,12.9 v 45.8 c 0,5.8 -4.6,10.4 -10.4,10.4 -5.9,0 -10.6,-4.6 -10.6,-10.4 v -10.3 l -21,-19.5 v 29.8 c 0,5.8 -4.7,10.4 -10.5,10.4 -5.8,0 -10.6,-4.6 -10.6,-10.4 V 147 c 0.5,-5.9 3.3,-9.1 7.7,-12.9 l 15.5,-12.9 c 6.1,-4.9 10.6,-5.2 16.6,-0.1 z m 2.3,40.4 v -22 h -21 v 22 z"
   class="st0" />
<path
   id="path14"
   d="m 2157.5958,117.7 c 13.7,0 13.7,21 0,21 -10.5,0 1.5,0 -9.1,0 0,17.8 0,36 0,53.6 0,14.3 -21.2,14.3 -21.2,0 0,-17.5 0,-35.8 0,-53.6 -10.5,0 1.5,0 -9.1,0 -13.8,0 -13.8,-21 0,-21 13.2,0 26.2,0 39.4,0 z"
   class="st0" />
<path
   id="path16"
   d="m 2195.2958,138.9 c 0,3.9 0,10.4 0,14 8,0 11,0 19,0 5.7,0 10.5,4.7 10.5,10.5 0,5.7 -4.8,10.6 -10.8,10.6 -7.7,0 -10.8,0 -18.7,0 0,7.1 0,11.4 0,18.5 0,13.8 -21.2,13.8 -21.2,0 0,-19 0,-38.1 0,-57 0,-9.9 8,-17.9 17.8,-17.9 11.7,0 15.4,0 27,0 5.9,0 10.6,4.7 10.6,10.4 0,5.8 -5,10.8 -10.6,10.8 h -23.6 z"
   class="st0" />
<path
   id="path18"
   d="m 2253.6958,118.1 h 24.2 c 9.6,0 17.9,7.9 17.9,17.9 v 48.6 c 0,8.7 -8.3,17.9 -17.3,17.9 h -25.3 c -9,0 -17.9,-9.2 -17.9,-17.9 V 136 c 0,-10.5 8.7,-17.9 18.4,-17.9 z m 20.9,21.2 h -18.1 v 42.3 h 18.1 z"
   class="st0" />
<path
   id="path20"
   d="m 2355.6958,168.1 c 7.5,4.6 10.2,10.4 10.2,18 v 6.2 c 0,5.8 -4.7,10.5 -10.3,10.5 -5.9,0 -10.4,-5 -10.4,-10.5 v -5.9 l -20.7,-25.2 c 0,13.1 0,18 0,31.1 0,5.8 -4.6,10.5 -10.4,10.5 -5.9,0 -10.6,-4.7 -10.6,-10.5 0,-21.2 0,-42.6 0,-63.7 0,-5.9 4.7,-10.6 10.6,-10.6 7.9,0 15.7,0 23.6,0 5,0 9.1,1.8 12.7,5.2 l 10.3,9.9 c 3.6,3.6 5.7,7.9 5.7,13.1 0,1.6 0,3.1 0,4.7 -0.1,8.2 -4,13.8 -10.7,17.2 z m -31.3,-29.1 v 20.3 h 20.7 c 0,-6.8 0,-13.5 0,-20.3 z"
   class="st0" />
<path
   id="path22"
   d="m 2410.2958,121.2 9.2,9.8 9.2,-9.8 c 5.1,-5.3 12.3,-5.3 17.1,0 l 12.3,12.8 c 3.7,4.2 6.9,6.9 7.5,12.8 v 46.1 c 0,13.7 -21.3,13.7 -21.3,0 0,-17.8 0,-35.8 0,-53.6 h -14.2 c 0,17.8 0,35.8 0,53.6 0,14 -21.2,14 -21.2,0 0,-17.8 0,-35.8 0,-53.6 h -13.9 c 0,17.8 0,35.8 0,53.6 0,13.7 -21.3,13.7 -21.3,0 v -46.1 c 0.2,-5.9 3.6,-8.6 7.5,-12.8 l 12.3,-12.8 c 4.8,-5.3 12.1,-5.3 16.8,0 z"
   class="st0" />
<g
   transform="translate(1321.6958)"
   id="g30">
	<path
   id="path24"
   d="m 525.2,153.8 c 0,-13.8 21.2,-13.8 21.2,-0.1 0,21.5 0,17.6 0,39.1 0,13.8 -21.2,13.7 -21.2,0 0,-21.7 0,-17.6 0,-39 z"
   class="st0" />
	<g
   id="g28">
		<polygon
   id="polygon26"
   points="525.9,139.5 546,139.5 546,117.8 525.9,117.6 "
   class="st0" />
	</g>
</g>
<g
   transform="translate(1321.6958)"
   id="g98">
	<circle
   id="circle32"
   r="136.7"
   cy="161.3"
   cx="182.2"
   class="st0" />
	<g
   id="g96">
		<ellipse
   id="ellipse34"
   ry="4.5"
   rx="16.700001"
   cy="198"
   cx="218.60001"
   class="st1" />
		<ellipse
   id="ellipse36"
   ry="4.5"
   rx="16.700001"
   cy="221.39999"
   cx="246"
   class="st1" />
		<ellipse
   id="ellipse38"
   ry="4.5"
   rx="16.700001"
   cy="209.39999"
   cx="277.70001"
   class="st1" />
		<ellipse
   id="ellipse40"
   ry="4.5"
   rx="16.700001"
   cy="196.89999"
   cx="254.10001"
   class="st1" />
		<path
   id="path42"
   d="m 241,211.4 c 2.8,0 6.3,3.4 6.3,7.5 0,4.1 -3.1,4 -7.8,4 -4.7,0 -10,0 -10,-4 4.3,-2.8 7.1,-7.5 11.5,-7.5 z"
   class="st2" />
		<path
   id="path44"
   d="m 248.3,188.1 c 2.5,0 5.6,3.2 5.6,6.9 0,3.7 -2.8,3.7 -7,3.7 -4.2,0 -8.9,0 -8.9,-3.7 3.9,-2.6 6.4,-6.9 10.3,-6.9 z"
   class="st3" />
		<path
   id="path46"
   d="m 273,200 c 2.8,0 6.3,3.4 6.3,7.5 0,4.1 -3.1,4 -7.8,4 -4.7,0 -10,0 -10,-4 4.3,-2.8 7.2,-7.5 11.5,-7.5 z"
   class="st2" />
		<path
   id="path48"
   d="m 211.6,190.4 c 2.1,0 4.6,2.5 4.6,5.6 0,3.1 -2.3,3 -5.8,3 -3.5,0 -7.4,1.2 -7.4,-1.8 3.3,-2.1 5.4,-6.8 8.6,-6.8 z"
   class="st4" />
		<ellipse
   id="ellipse50"
   ry="4.5"
   rx="16.700001"
   cy="197"
   cx="145.5"
   class="st1" />
		<path
   id="path52"
   d="m 152.5,189.5 c -2.1,0 -4.6,2.5 -4.6,5.6 0,3.1 2.3,3 5.8,3 3.5,0 7.4,1.2 7.4,-1.8 -3.3,-2.1 -5.4,-6.8 -8.6,-6.8 z"
   class="st4" />
		<polyline
   id="polyline54"
   points="202.4,149.3 238.3,129.3 238.9,194.5 245.6,195.8   "
   class="st6" />
		<polyline
   id="polyline56"
   points="202.4,149.3 253.6,141.8 262.6,209.7   "
   class="st6" />
		<polyline
   id="polyline58"
   points="200.8,158.8 215.7,162.4 204.8,194.9 211.1,194.7   "
   class="st6" />
		<polyline
   id="polyline60"
   points="202.4,149.3 231.8,157 230.4,219.4 236.6,220.2   "
   class="st6" />
		<ellipse
   id="ellipse62"
   ry="4.5"
   rx="16.700001"
   cy="221.39999"
   cx="118.3"
   class="st1" />
		<ellipse
   id="ellipse64"
   ry="4.5"
   rx="16.700001"
   cy="209.39999"
   cx="86.599998"
   class="st1" />
		<ellipse
   id="ellipse66"
   ry="4.5"
   rx="16.700001"
   cy="196"
   cx="110.1"
   class="st1" />
		<path
   id="path68"
   d="m 123.4,211.4 c -2.8,0 -6.3,3.4 -6.3,7.5 0,4.1 3.1,4 7.8,4 4.7,0 10,0 10,-4 -4.3,-2.8 -7.2,-7.5 -11.5,-7.5 z"
   class="st2" />
		<path
   id="path70"
   d="m 114.4,186.8 c -2.8,0 -6.3,3.4 -6.3,7.5 0,4.1 3.1,4 7.8,4 4.7,0 10,0 10,-4 -4.4,-2.8 -7.2,-7.5 -11.5,-7.5 z"
   class="st2" />
		<path
   id="path72"
   d="m 91.3,200 c -2.8,0 -6.3,3.4 -6.3,7.5 0,4.1 3.1,4 7.8,4 4.7,0 10,0 10,-4 -4.3,-2.8 -7.1,-7.5 -11.5,-7.5 z"
   class="st2" />
		<polyline
   id="polyline74"
   points="161.9,149.3 126.1,129.3 125.4,194.5 118.8,195.8   "
   class="st6" />
		<polyline
   id="polyline76"
   points="161.9,149.3 110.7,141.8 101.7,209.7   "
   class="st6" />
		<polyline
   id="polyline78"
   points="163.5,158.8 148.6,162.4 159.5,194.9 154,197.3   "
   class="st6" />
		<polyline
   id="polyline80"
   points="161.9,149.3 132.6,157 133.9,219.4 127.7,220.2   "
   class="st6" />
		<path
   id="path82"
   d="m 202.8,124.5 c 0,0 14.2,0.8 14.2,14.6 0,13.8 -10.3,25.3 -29.8,27.8 -18.7,2.4 -36.5,-6.8 -36.5,-28.9 0,-22.1 20.5,-18.4 20.5,-18.4"
   class="st7" />
		<ellipse
   id="ellipse84"
   ry="17.200001"
   rx="16.6"
   cy="122"
   cx="201.7"
   class="st8" />
		<circle
   id="circle86"
   r="7.5999999"
   cy="122.9"
   cx="203.3" />
		<circle
   id="circle88"
   r="2"
   cy="121.5"
   cx="201.5"
   class="st5" />
		<ellipse
   id="ellipse90"
   ry="21.700001"
   rx="21"
   cy="118.4"
   cx="170.5"
   class="st8" />
		<circle
   id="circle92"
   r="9.6000004"
   cy="119.6"
   cx="172.2" />
		
			<circle
   r="2.5"
   id="ellipse94"
   cy="117.8"
   cx="177.10001"
   class="st5"
   transform="matrix(0.9984,-0.05733701,0.05733701,0.9984,-6.4604,10.3496)" />
	</g>
</g>
<g
   id="g922"
   transform="translate(244.02789,12.087875)"><ellipse
     ry="136.7"
     rx="400"
     style="fill:#85ccd3;stroke-width:1.71059"
     id="circle32-1"
     cy="149.21213"
     cx="446.79694"
     class="st0" /><g
     transform="matrix(5.9429253,0,0,-5.9429253,-142.90778,4733.6796)"
     id="g4709"><g
       id="g4704"><path
         d="m 64.919218,787.12846 v 0 H 62.56428 v 0.9211 h 5.735185 v -0.9211 h -2.373539 v -6.43653 h -1.006708 z"
         style="fill:#63675c;fill-opacity:1;fill-rule:nonzero;stroke:none"
         id="path30" /><path
         d="m 75.660041,784.80343 v 0 -3.63238 c -0.193827,-0.11143 -0.396954,-0.19314 -0.618683,-0.28599 -0.249259,-0.0817 -0.470987,-0.16713 -0.729547,-0.22285 -0.249259,-0.0557 -0.49889,-0.0817 -0.748148,-0.10771 -0.25856,-0.0297 -0.480289,-0.0557 -0.702018,-0.0557 -0.646212,0 -1.200534,0.10771 -1.680822,0.30456 -0.470988,0.23027 -0.895844,0.50512 -1.228065,0.83939 -0.341894,0.36769 -0.619055,0.78367 -0.78498,1.26279 -0.166296,0.44198 -0.24963,0.94709 -0.24963,1.48192 0,0.52741 0.08333,1.03252 0.277161,1.51164 0.193826,0.47169 0.443457,0.8951 0.784979,1.22937 0.332593,0.35655 0.757449,0.61654 1.228437,0.83567 0.452386,0.19685 0.978806,0.27856 1.542428,0.27856 0.664814,0 1.228065,-0.0817 1.671522,-0.24885 0.424856,-0.16713 0.78498,-0.38626 1.071069,-0.70196 l -0.701645,-0.75396 c -0.304691,0.28598 -0.619054,0.47912 -0.979178,0.59054 -0.341521,0.13742 -0.701645,0.19313 -1.061768,0.19313 -0.424856,0 -0.812881,-0.0854 -1.145474,-0.24884 -0.341522,-0.14114 -0.646213,-0.36027 -0.867942,-0.62026 -0.258559,-0.27484 -0.452758,-0.5794 -0.563622,-0.94709 -0.138395,-0.33427 -0.193827,-0.72797 -0.193827,-1.11795 0,-0.4234 0.05543,-0.80967 0.193827,-1.17736 0.166296,-0.36027 0.360495,-0.67597 0.619054,-0.92482 0.249259,-0.27484 0.55395,-0.46797 0.895844,-0.61654 0.360123,-0.16713 0.720246,-0.22284 1.145102,-0.22284 0.360124,0 0.702017,0.0297 1.006708,0.0854 0.304691,0.0817 0.581852,0.16342 0.81251,0.28599 v 2.06504 h -1.652921 v 0.92109 h 2.659629 z"
         style="fill:#63675c;fill-opacity:1;fill-rule:nonzero;stroke:none"
         id="path32" /><path
         d="m 76.472922,788.04956 v 0 h 1.145103 l 2.15181,-5.98342 h 0.0279 l 2.234773,5.98342 h 1.126873 l -2.909259,-7.35763 h -0.951276 l -2.825926,7.35763 z"
         style="fill:#63675c;fill-opacity:1;fill-rule:nonzero;stroke:none"
         id="path34" /></g><g
       id="g4695"><path
         d="m 71.91037,770.67834 v 0 c 0,1.95474 1.59786,3.54957 3.555844,3.54957 1.957984,0 3.574074,-1.59483 3.574074,-3.54957 v -10.57552 h 4.119095 v 10.57552 c 0,4.22294 -3.44498,7.68856 -7.693169,7.68856 -4.229959,0 -7.693169,-3.46562 -7.693169,-7.68856 v -10.57552 h 4.137325 z"
         style="fill:#63675c;fill-opacity:1;fill-rule:nonzero;stroke:none"
         id="path36" /><path
         d="m 62.786008,777.52751 v 0 c -0.637284,-2.73692 -0.979177,-5.59529 -1.006708,-8.52719 0,-0.0553 0,-5.73494 0,-5.73494 0.110865,0.0828 0.249259,0.16602 0.369424,0.24884 0.52642,0.2767 1.117573,0.47949 1.754857,0.47949 0.757077,0 1.459094,-0.25813 2.050247,-0.67299 v 14.20679 z"
         style="fill:#63675c;fill-opacity:1;fill-rule:nonzero;stroke:none"
         id="path38" /><path
         d="m 63.903581,762.39888 v 0 c -1.283869,0 -2.290577,-1.04218 -2.290577,-2.29606 0,-1.29065 1.006708,-2.29568 2.290577,-2.29568 1.265267,0 2.299506,1.00503 2.299506,2.29568 0,1.25388 -1.034239,2.29606 -2.299506,2.29606 z"
         style="fill:#930c38;fill-opacity:1;fill-rule:nonzero;stroke:none"
         id="path40" /><path
         d="m 126.51926,766.95348 v 0 c 0,-1.95473 -1.596,-3.54994 -3.55659,-3.54994 -1.95687,0 -3.54543,1.59521 -3.54543,3.54994 v 10.57403 h -4.14811 v -10.57403 c 0,-4.22293 3.47474,-7.68967 7.69354,-7.68967 4.25972,0 7.69354,3.46674 7.69354,7.68967 v 10.57403 h -4.13695 z"
         style="fill:#930c38;fill-opacity:1;fill-rule:nonzero;stroke:none"
         id="path42-3" /><path
         d="m 134.5253,775.23294 v 0 c 1.2835,0 2.31774,1.04181 2.31774,2.29457 0,1.29251 -1.03424,2.29532 -2.31774,2.29532 -1.26489,0 -2.29913,-1.00281 -2.29913,-2.29532 0,-1.25276 1.03424,-2.29457 2.29913,-2.29457 z"
         style="fill:#930c38;fill-opacity:1;fill-rule:nonzero;stroke:none"
         id="path44-9" /><path
         d="m 135.64511,760.10282 v 0 c 0.63617,2.73841 1.00447,5.59678 1.00447,8.52869 0,0.0553 0,5.73493 0,5.73493 -0.10788,-0.0832 -0.24926,-0.16602 -0.3683,-0.24884 -0.52456,-0.2767 -1.11609,-0.47058 -1.75598,-0.47058 -0.75521,0 -1.45835,0.24922 -2.02011,0.66408 v -14.20828 z"
         style="fill:#930c38;fill-opacity:1;fill-rule:nonzero;stroke:none"
         id="path46-3" /><path
         d="m 99.219836,778.3669 v 0 c 5.253034,0 9.538804,-4.27716 9.538804,-9.56009 0,-5.26473 -4.28577,-9.543 -9.538804,-9.543 -5.264197,0 -9.549961,4.27827 -9.549961,9.543 0,5.28293 4.285764,9.56009 9.549961,9.56009 z m 0,-23.77766 v 0 c 7.860954,0 14.230074,6.38045 14.230074,14.21757 0,7.85532 -6.36912,14.23614 -14.230074,14.23614 -7.842352,0 -14.215193,-6.38082 -14.215193,-14.23614 0,-7.83712 6.372841,-14.21757 14.215193,-14.21757 z"
         style="fill:#930c38;fill-opacity:1;fill-rule:nonzero;stroke:none"
         id="path48-5" /></g></g></g></svg>
