<?xml version="1.0" encoding="UTF-8" standalone="no"?>
<svg
   xmlns:dc="http://purl.org/dc/elements/1.1/"
   xmlns:cc="http://creativecommons.org/ns#"
   xmlns:rdf="http://www.w3.org/1999/02/22-rdf-syntax-ns#"
   xmlns:svg="http://www.w3.org/2000/svg"
   xmlns="http://www.w3.org/2000/svg"
   version="1.1"
   id="Calque_1"
   x="0px"
   y="0px"
   viewBox="0 0 2500 322.6"
   xml:space="preserve"
   width="2500"
   height="322.60001"><metadata
   id="metadata105"><rdf:RDF><cc:Work
       rdf:about=""><dc:format>image/svg+xml</dc:format><dc:type
         rdf:resource="http://purl.org/dc/dcmitype/StillImage" /><dc:title></dc:title></cc:Work></rdf:RDF></metadata><defs
   id="defs103"><clipPath
     id="clipPath3001"
     clipPathUnits="userSpaceOnUse"><path
       id="path3003"
       d="m 120.688,3.172 353.899,0 0,365.373 -353.899,0 0,-365.373 z" /></clipPath></defs>
<style
   type="text/css"
   id="style2">
	.st0{fill:#85CCD3;}
	.st1{fill:#1B939E;}
	.st2{stroke:#000000;stroke-width:1.7498;stroke-miterlimit:10;}
	.st3{stroke:#000000;stroke-width:1.5918;stroke-miterlimit:10;}
	.st4{stroke:#000000;stroke-width:1.2967;stroke-miterlimit:10;}
	.st5{fill:#FFFFFF;}
	.st6{fill:none;stroke:#000000;stroke-width:3.3286;stroke-miterlimit:10;}
	.st7{fill:#3CAAB5;stroke:#000000;stroke-width:2.4579;stroke-miterlimit:10;}
	.st8{fill:#FFFFFF;stroke:#000000;stroke-width:2.2191;stroke-miterlimit:10;}
	.st9{fill:#9D9D9C;}
	.st10{stroke:#000000;stroke-width:2.4031;stroke-miterlimit:10;}
	.st11{stroke:#000000;stroke-width:2.1861;stroke-miterlimit:10;}
	.st12{stroke:#000000;stroke-width:1.7808;stroke-miterlimit:10;}
	.st13{fill:none;stroke:#000000;stroke-width:4.5713;stroke-miterlimit:10;}
	.st14{fill:#3CAAB5;stroke:#000000;stroke-width:3.3756;stroke-miterlimit:10;}
	.st15{fill:#FFFFFF;stroke:#000000;stroke-width:3.0476;stroke-miterlimit:10;}
	.st16{fill:#B2B2B2;}
	.st17{fill:#706F6F;}
</style>
<path
   class="st0"
   d="m 1742.1958,121.1 15.8,12.9 c 4.6,3.9 7.1,7 7.5,12.9 v 45.8 c 0,5.8 -4.6,10.4 -10.4,10.4 -5.9,0 -10.6,-4.6 -10.6,-10.4 v -10.3 l -21,-19.5 v 29.8 c 0,5.8 -4.7,10.4 -10.5,10.4 -5.8,0 -10.6,-4.6 -10.6,-10.4 V 147 c 0.5,-5.9 3.3,-9.1 7.7,-12.9 l 15.5,-12.9 c 6.1,-4.9 10.6,-5.2 16.6,-0.1 z m 2.3,40.4 v -22 h -21 v 22 z"
   id="path4" />
<path
   class="st0"
   d="M 1797.0958,181.8 V 192 c 0,5.9 -4.4,10.8 -10.3,10.8 -5.8,0 -10.6,-4.8 -10.6,-10.8 0,-18.7 0,-37.5 0,-56.2 0,-9.8 8.1,-17.9 17.9,-17.9 5.7,0 10.3,0 16.1,0 4.8,0 9,1.7 12.5,5 l 11.6,11.6 c 7.6,7.3 6.3,25.2 -1.1,32.3 l -10.5,10 c -3.5,3.5 -7.6,5.1 -12.5,5.1 h -13.1 z m 20.3,-21.1 V 139 l -20.1,-0.2 v 21.9 z"
   id="path6" />
<path
   class="st0"
   d="M 1938.8958,181.8 V 192 c 0,5.9 -4.4,10.8 -10.3,10.8 -5.8,0 -10.6,-4.8 -10.6,-10.8 0,-18.7 0,-37.5 0,-56.2 0,-9.8 8.1,-17.9 17.9,-17.9 5.7,0 10.3,0 16.1,0 4.8,0 9,1.7 12.5,5 l 11.6,11.6 c 7.6,7.3 6.3,25.2 -1.1,32.3 l -10.5,10 c -3.5,3.5 -7.6,5.1 -12.5,5.1 h -13.1 z m 20.3,-21.1 V 139 l -20.1,-0.2 v 21.9 z"
   id="path8" />
<path
   class="st0"
   d="m 1987.6958,184.6 c 0,-18.7 0,-37.5 0,-56.5 0,-5.7 5,-10.4 10.6,-10.4 6,0 10.8,4.7 10.8,10.4 v 53.7 c 10.6,0 7.6,-0.2 18.1,-0.2 13.9,0 13.9,21.3 0,21.3 -9.6,0 -15.2,0 -21.2,0 -9.9,0 -18.3,-8.2 -18.3,-18.3 z"
   id="path10" />
<path
   class="st0"
   d="m 2083.5958,121.1 15.8,12.9 c 4.6,3.9 7.1,7 7.5,12.9 v 45.8 c 0,5.8 -4.6,10.4 -10.4,10.4 -5.9,0 -10.6,-4.6 -10.6,-10.4 v -10.3 l -21,-19.5 v 29.8 c 0,5.8 -4.7,10.4 -10.5,10.4 -5.8,0 -10.6,-4.6 -10.6,-10.4 V 147 c 0.5,-5.9 3.3,-9.1 7.7,-12.9 l 15.5,-12.9 c 6.1,-4.9 10.6,-5.2 16.6,-0.1 z m 2.3,40.4 v -22 h -21 v 22 z"
   id="path12" />
<path
   class="st0"
   d="m 2157.5958,117.7 c 13.7,0 13.7,21 0,21 -10.5,0 1.5,0 -9.1,0 0,17.8 0,36 0,53.6 0,14.3 -21.2,14.3 -21.2,0 0,-17.5 0,-35.8 0,-53.6 -10.5,0 1.5,0 -9.1,0 -13.8,0 -13.8,-21 0,-21 13.2,0 26.2,0 39.4,0 z"
   id="path14" />
<path
   class="st0"
   d="m 2195.2958,138.9 c 0,3.9 0,10.4 0,14 8,0 11,0 19,0 5.7,0 10.5,4.7 10.5,10.5 0,5.7 -4.8,10.6 -10.8,10.6 -7.7,0 -10.8,0 -18.7,0 0,7.1 0,11.4 0,18.5 0,13.8 -21.2,13.8 -21.2,0 0,-19 0,-38.1 0,-57 0,-9.9 8,-17.9 17.8,-17.9 11.7,0 15.4,0 27,0 5.9,0 10.6,4.7 10.6,10.4 0,5.8 -5,10.8 -10.6,10.8 h -23.6 z"
   id="path16" />
<path
   class="st0"
   d="m 2253.6958,118.1 h 24.2 c 9.6,0 17.9,7.9 17.9,17.9 v 48.6 c 0,8.7 -8.3,17.9 -17.3,17.9 h -25.3 c -9,0 -17.9,-9.2 -17.9,-17.9 V 136 c 0,-10.5 8.7,-17.9 18.4,-17.9 z m 20.9,21.2 h -18.1 v 42.3 h 18.1 z"
   id="path18" />
<path
   class="st0"
   d="m 2355.6958,168.1 c 7.5,4.6 10.2,10.4 10.2,18 v 6.2 c 0,5.8 -4.7,10.5 -10.3,10.5 -5.9,0 -10.4,-5 -10.4,-10.5 v -5.9 l -20.7,-25.2 c 0,13.1 0,18 0,31.1 0,5.8 -4.6,10.5 -10.4,10.5 -5.9,0 -10.6,-4.7 -10.6,-10.5 0,-21.2 0,-42.6 0,-63.7 0,-5.9 4.7,-10.6 10.6,-10.6 7.9,0 15.7,0 23.6,0 5,0 9.1,1.8 12.7,5.2 l 10.3,9.9 c 3.6,3.6 5.7,7.9 5.7,13.1 0,1.6 0,3.1 0,4.7 -0.1,8.2 -4,13.8 -10.7,17.2 z m -31.3,-29.1 v 20.3 h 20.7 c 0,-6.8 0,-13.5 0,-20.3 z"
   id="path20" />
<path
   class="st0"
   d="m 2410.2958,121.2 9.2,9.8 9.2,-9.8 c 5.1,-5.3 12.3,-5.3 17.1,0 l 12.3,12.8 c 3.7,4.2 6.9,6.9 7.5,12.8 v 46.1 c 0,13.7 -21.3,13.7 -21.3,0 0,-17.8 0,-35.8 0,-53.6 h -14.2 c 0,17.8 0,35.8 0,53.6 0,14 -21.2,14 -21.2,0 0,-17.8 0,-35.8 0,-53.6 h -13.9 c 0,17.8 0,35.8 0,53.6 0,13.7 -21.3,13.7 -21.3,0 v -46.1 c 0.2,-5.9 3.6,-8.6 7.5,-12.8 l 12.3,-12.8 c 4.8,-5.3 12.1,-5.3 16.8,0 z"
   id="path22" />
<g
   id="g30"
   transform="translate(1321.6958)">
	<path
   class="st0"
   d="m 525.2,153.8 c 0,-13.8 21.2,-13.8 21.2,-0.1 0,21.5 0,17.6 0,39.1 0,13.8 -21.2,13.7 -21.2,0 0,-21.7 0,-17.6 0,-39 z"
   id="path24" />
	<g
   id="g28">
		<polygon
   class="st0"
   points="525.9,139.5 546,139.5 546,117.8 525.9,117.6 "
   id="polygon26" />
	</g>
</g>
<g
   id="g98"
   transform="translate(1321.6958)">
	<circle
   class="st0"
   cx="182.2"
   cy="161.3"
   r="136.7"
   id="circle32" />
	<g
   id="g96">
		<ellipse
   class="st1"
   cx="218.60001"
   cy="198"
   rx="16.700001"
   ry="4.5"
   id="ellipse34" />
		<ellipse
   class="st1"
   cx="246"
   cy="221.39999"
   rx="16.700001"
   ry="4.5"
   id="ellipse36" />
		<ellipse
   class="st1"
   cx="277.70001"
   cy="209.39999"
   rx="16.700001"
   ry="4.5"
   id="ellipse38" />
		<ellipse
   class="st1"
   cx="254.10001"
   cy="196.89999"
   rx="16.700001"
   ry="4.5"
   id="ellipse40" />
		<path
   class="st2"
   d="m 241,211.4 c 2.8,0 6.3,3.4 6.3,7.5 0,4.1 -3.1,4 -7.8,4 -4.7,0 -10,0 -10,-4 4.3,-2.8 7.1,-7.5 11.5,-7.5 z"
   id="path42" />
		<path
   class="st3"
   d="m 248.3,188.1 c 2.5,0 5.6,3.2 5.6,6.9 0,3.7 -2.8,3.7 -7,3.7 -4.2,0 -8.9,0 -8.9,-3.7 3.9,-2.6 6.4,-6.9 10.3,-6.9 z"
   id="path44" />
		<path
   class="st2"
   d="m 273,200 c 2.8,0 6.3,3.4 6.3,7.5 0,4.1 -3.1,4 -7.8,4 -4.7,0 -10,0 -10,-4 4.3,-2.8 7.2,-7.5 11.5,-7.5 z"
   id="path46" />
		<path
   class="st4"
   d="m 211.6,190.4 c 2.1,0 4.6,2.5 4.6,5.6 0,3.1 -2.3,3 -5.8,3 -3.5,0 -7.4,1.2 -7.4,-1.8 3.3,-2.1 5.4,-6.8 8.6,-6.8 z"
   id="path48" />
		<ellipse
   class="st1"
   cx="145.5"
   cy="197"
   rx="16.700001"
   ry="4.5"
   id="ellipse50" />
		<path
   class="st4"
   d="m 152.5,189.5 c -2.1,0 -4.6,2.5 -4.6,5.6 0,3.1 2.3,3 5.8,3 3.5,0 7.4,1.2 7.4,-1.8 -3.3,-2.1 -5.4,-6.8 -8.6,-6.8 z"
   id="path52" />
		<polyline
   class="st6"
   points="202.4,149.3 238.3,129.3 238.9,194.5 245.6,195.8   "
   id="polyline54" />
		<polyline
   class="st6"
   points="202.4,149.3 253.6,141.8 262.6,209.7   "
   id="polyline56" />
		<polyline
   class="st6"
   points="200.8,158.8 215.7,162.4 204.8,194.9 211.1,194.7   "
   id="polyline58" />
		<polyline
   class="st6"
   points="202.4,149.3 231.8,157 230.4,219.4 236.6,220.2   "
   id="polyline60" />
		<ellipse
   class="st1"
   cx="118.3"
   cy="221.39999"
   rx="16.700001"
   ry="4.5"
   id="ellipse62" />
		<ellipse
   class="st1"
   cx="86.599998"
   cy="209.39999"
   rx="16.700001"
   ry="4.5"
   id="ellipse64" />
		<ellipse
   class="st1"
   cx="110.1"
   cy="196"
   rx="16.700001"
   ry="4.5"
   id="ellipse66" />
		<path
   class="st2"
   d="m 123.4,211.4 c -2.8,0 -6.3,3.4 -6.3,7.5 0,4.1 3.1,4 7.8,4 4.7,0 10,0 10,-4 -4.3,-2.8 -7.2,-7.5 -11.5,-7.5 z"
   id="path68" />
		<path
   class="st2"
   d="m 114.4,186.8 c -2.8,0 -6.3,3.4 -6.3,7.5 0,4.1 3.1,4 7.8,4 4.7,0 10,0 10,-4 -4.4,-2.8 -7.2,-7.5 -11.5,-7.5 z"
   id="path70" />
		<path
   class="st2"
   d="m 91.3,200 c -2.8,0 -6.3,3.4 -6.3,7.5 0,4.1 3.1,4 7.8,4 4.7,0 10,0 10,-4 -4.3,-2.8 -7.1,-7.5 -11.5,-7.5 z"
   id="path72" />
		<polyline
   class="st6"
   points="161.9,149.3 126.1,129.3 125.4,194.5 118.8,195.8   "
   id="polyline74" />
		<polyline
   class="st6"
   points="161.9,149.3 110.7,141.8 101.7,209.7   "
   id="polyline76" />
		<polyline
   class="st6"
   points="163.5,158.8 148.6,162.4 159.5,194.9 154,197.3   "
   id="polyline78" />
		<polyline
   class="st6"
   points="161.9,149.3 132.6,157 133.9,219.4 127.7,220.2   "
   id="polyline80" />
		<path
   class="st7"
   d="m 202.8,124.5 c 0,0 14.2,0.8 14.2,14.6 0,13.8 -10.3,25.3 -29.8,27.8 -18.7,2.4 -36.5,-6.8 -36.5,-28.9 0,-22.1 20.5,-18.4 20.5,-18.4"
   id="path82" />
		<ellipse
   class="st8"
   cx="201.7"
   cy="122"
   rx="16.6"
   ry="17.200001"
   id="ellipse84" />
		<circle
   cx="203.3"
   cy="122.9"
   r="7.5999999"
   id="circle86" />
		<circle
   class="st5"
   cx="201.5"
   cy="121.5"
   r="2"
   id="circle88" />
		<ellipse
   class="st8"
   cx="170.5"
   cy="118.4"
   rx="21"
   ry="21.700001"
   id="ellipse90" />
		<circle
   cx="172.2"
   cy="119.6"
   r="9.6000004"
   id="circle92" />
		
			<circle
   transform="matrix(0.9984,-0.05733701,0.05733701,0.9984,-6.4604,10.3496)"
   class="st5"
   cx="177.10001"
   cy="117.8"
   id="ellipse94"
   r="2.5" />
	</g>
</g>
<g
   transform="translate(244.02789,12.087875)"
   id="g922"><ellipse
     class="st0"
     cx="446.79694"
     cy="149.21213"
     id="circle32-1"
     style="fill:#85ccd3;stroke-width:1.71059"
     rx="400"
     ry="136.7" /><g
     id="g2999"
     clip-path="url(#clipPath3001)"
     transform="matrix(1.25,0,0,-1.25,81.746186,378.015)"><g
       id="g3005"
       transform="translate(292.7454,251.5881)"><path
         d="m 0,0 c -6.325,0 -10.821,5.154 -10.821,11.29 0,6.126 4.391,11.181 10.725,11.181 6.339,0 10.825,-5.164 10.825,-11.299 C 10.729,5.06 6.337,0 0,0"
         style="fill:#ffffff;fill-opacity:1;fill-rule:nonzero;stroke:none"
         id="path3007" /></g><g
       id="g3009"
       transform="translate(292.7454,91.7101)"><path
         d="m 0,0 c -6.325,0 -10.821,5.147 -10.821,11.284 0,6.123 4.391,11.172 10.725,11.172 6.339,0 10.825,-5.145 10.825,-11.292 C 10.729,5.053 6.337,0 0,0"
         style="fill:#ffffff;fill-opacity:1;fill-rule:nonzero;stroke:none"
         id="path3011" /></g><g
       id="g3013"
       transform="translate(383.5961,183.0498)"><path
         d="m 0,0 c 0,-50.582 -40.979,-91.554 -91.548,-91.554 -50.59,0 -91.563,40.972 -91.563,91.554 0,50.518 40.973,91.539 91.563,91.539 C -40.979,91.539 0,50.518 0,0"
         style="fill:#e3006a;fill-opacity:1;fill-rule:nonzero;stroke:none"
         id="path3015" /></g><g
       id="g3017"
       transform="translate(250.5055,179.1495)"><path
         d="m 0,0 v 16.799 c 0,2.19 1.729,3.934 3.932,3.934 2.191,0 3.936,-1.744 3.936,-3.934 V 0.214 c 0,-5.83 2.906,-8.839 7.705,-8.839 4.801,0 7.711,2.904 7.711,8.559 v 16.865 c 0,2.19 1.734,3.934 3.928,3.934 2.202,0 3.932,-1.744 3.932,-3.934 V 0.248 c 0,-10.821 -6.07,-16.123 -15.676,-16.123 C 5.879,-15.875 0,-10.528 0,0"
         style="fill:#ffffff;fill-opacity:1;fill-rule:nonzero;stroke:none"
         id="path3019" /></g><g
       id="g3021"
       transform="translate(286.9556,195.9439)"><path
         d="M 0,0 C 0,2.2 1.744,3.938 3.938,3.938 6.136,3.938 7.874,2.2 7.874,0 v -28.49 c 0,-2.2 -1.738,-3.938 -3.936,-3.938 C 1.744,-32.428 0,-30.69 0,-28.49 Z"
         style="fill:#ffffff;fill-opacity:1;fill-rule:nonzero;stroke:none"
         id="path3023" /></g><g
       id="g3025"
       transform="translate(295.6633,209.2582)"><path
         d="m 0,0 c 0,-2.633 -2.138,-4.771 -4.771,-4.771 -2.632,0 -4.764,2.138 -4.764,4.771 0,2.635 2.132,4.766 4.764,4.766 C -2.138,4.766 0,2.635 0,0"
         style="fill:#ffffff;fill-opacity:1;fill-rule:nonzero;stroke:none"
         id="path3027" /></g><g
       id="g3029"
       transform="translate(330.6357,184.4189)"><path
         d="m 0,0 h -9.197 c -1.89,0 -3.418,-1.541 -3.418,-3.429 0,-1.892 1.528,-3.367 3.418,-3.367 h 5.747 v -4.89 c -1.817,-1.685 -4.401,-2.363 -8.065,-2.363 -6.322,0 -11.123,4.852 -11.123,11.38 0,6.085 4.85,11.194 10.567,11.194 3.375,0 5.667,-0.923 7.82,-2.451 0.561,-0.406 1.267,-0.809 2.395,-0.809 2.149,0 3.885,1.734 3.885,3.878 0,1.522 -0.873,2.601 -1.633,3.162 -3.223,2.251 -6.8,3.471 -12.206,3.471 -10.828,0 -19.053,-8.379 -19.053,-18.541 0,-10.563 7.97,-18.433 19.108,-18.433 5.531,0 10.201,1.687 13.591,4.326 1.743,1.335 2.106,2.391 2.106,4.696 v 8.251 C 3.942,-1.747 2.2,0 0,0"
         style="fill:#ffffff;fill-opacity:1;fill-rule:nonzero;stroke:none"
         id="path3031" /></g><g
       id="g3033"
       transform="translate(355.9935,170.4649)"><path
         d="m 0,0 c -6.333,0 -10.819,5.154 -10.819,11.288 0,6.128 4.392,11.183 10.725,11.183 6.335,0 10.826,-5.154 10.826,-11.29 C 10.732,5.062 6.331,0 0,0 m 0,29.714 c -11.027,0 -19.047,-8.371 -19.047,-18.533 0,-10.16 7.919,-18.43 18.953,-18.43 11.02,0 19.04,8.373 19.04,18.537 0,10.16 -7.911,18.426 -18.946,18.426"
         style="fill:#ffffff;fill-opacity:1;fill-rule:nonzero;stroke:none"
         id="path3035" /></g><g
       id="g3037"
       transform="translate(228.1901,170.4649)"><path
         d="m 0,0 c -6.34,0 -10.826,5.154 -10.826,11.288 0,6.128 4.388,11.183 10.725,11.183 6.331,0 10.822,-5.154 10.822,-11.29 C 10.721,5.062 6.325,0 0,0 m 0,29.714 c -11.033,0 -19.055,-8.371 -19.055,-18.533 0,-10.16 7.917,-18.43 18.954,-18.43 11.027,0 19.041,8.373 19.041,18.537 0,10.16 -7.915,18.426 -18.94,18.426"
         style="fill:#ffffff;fill-opacity:1;fill-rule:nonzero;stroke:none"
         id="path3039" /></g></g></g></svg>
